<mxfile host="65bd71144e">
    <diagram id="mXO7avNkVZgCCBS-8_Mv" name="Pagina-1">
        <mxGraphModel dx="438" dy="2660" grid="1" gridSize="10" guides="1" tooltips="1" connect="1" arrows="1" fold="1" page="1" pageScale="1" pageWidth="827" pageHeight="1169" math="0" shadow="0">
            <root>
                <mxCell id="0"/>
                <mxCell id="1" parent="0"/>
                <mxCell id="2" style="edgeStyle=orthogonalEdgeStyle;rounded=0;html=1;exitX=0.5;exitY=0;exitDx=0;exitDy=0;entryX=0;entryY=0.5;entryDx=0;entryDy=0;startArrow=none;startFill=0;endArrow=classic;endFill=1;fontSize=12;" parent="1" source="4" target="6" edge="1">
                    <mxGeometry relative="1" as="geometry"/>
                </mxCell>
                <mxCell id="3" style="edgeStyle=orthogonalEdgeStyle;rounded=0;html=1;exitX=1;exitY=0.5;exitDx=0;exitDy=0;entryX=0;entryY=0.825;entryDx=0;entryDy=0;entryPerimeter=0;" parent="1" source="4" target="26" edge="1">
                    <mxGeometry relative="1" as="geometry"/>
                </mxCell>
                <mxCell id="4" value="PC" style="rounded=0;whiteSpace=wrap;html=1;direction=south;fontSize=12;" parent="1" vertex="1">
                    <mxGeometry x="40" y="-2220" width="30" height="70" as="geometry"/>
                </mxCell>
                <mxCell id="5" style="edgeStyle=none;rounded=0;html=1;exitX=1;exitY=0.5;exitDx=0;exitDy=0;entryX=0.5;entryY=1;entryDx=0;entryDy=0;sourcePerimeterSpacing=-2;targetPerimeterSpacing=2;fontSize=12;" parent="1" source="6" target="17" edge="1">
                    <mxGeometry relative="1" as="geometry"/>
                </mxCell>
                <mxCell id="6" value="MI" style="whiteSpace=wrap;html=1;aspect=fixed;fontSize=12;rounded=0;" parent="1" vertex="1">
                    <mxGeometry x="99.94999999999999" y="-2210" width="50" height="50" as="geometry"/>
                </mxCell>
                <mxCell id="7" style="edgeStyle=orthogonalEdgeStyle;html=1;exitX=1;exitY=0.25;exitDx=0;exitDy=0;entryX=0;entryY=0.175;entryDx=0;entryDy=0;entryPerimeter=0;rounded=0;fontSize=12;" parent="1" source="11" target="19" edge="1">
                    <mxGeometry relative="1" as="geometry">
                        <mxPoint x="400" y="-2175" as="targetPoint"/>
                        <Array as="points">
                            <mxPoint x="520" y="-2193"/>
                            <mxPoint x="520" y="-2156"/>
                        </Array>
                    </mxGeometry>
                </mxCell>
                <mxCell id="8" style="edgeStyle=orthogonalEdgeStyle;html=1;exitX=1;exitY=0.75;exitDx=0;exitDy=0;entryX=0.25;entryY=1;entryDx=0;entryDy=0;rounded=0;" parent="1" source="11" target="24" edge="1">
                    <mxGeometry relative="1" as="geometry">
                        <mxPoint x="400" y="-2109.75" as="targetPoint"/>
                        <Array as="points">
                            <mxPoint x="460" y="-2157"/>
                            <mxPoint x="460" y="-2124"/>
                        </Array>
                    </mxGeometry>
                </mxCell>
                <mxCell id="10" style="edgeStyle=orthogonalEdgeStyle;rounded=0;html=1;exitX=0;exitY=0.75;exitDx=0;exitDy=0;entryX=0.919;entryY=0.004;entryDx=0;entryDy=0;entryPerimeter=0;startArrow=classic;startFill=1;endArrow=none;endFill=0;" parent="1" source="11" target="17" edge="1">
                    <mxGeometry relative="1" as="geometry">
                        <Array as="points">
                            <mxPoint x="350" y="-2158"/>
                            <mxPoint x="350" y="-2120"/>
                        </Array>
                    </mxGeometry>
                </mxCell>
                <mxCell id="11" value="REG" style="whiteSpace=wrap;html=1;aspect=fixed;fontSize=12;rounded=0;" parent="1" vertex="1">
                    <mxGeometry x="379" y="-2210" width="70" height="70" as="geometry"/>
                </mxCell>
                <mxCell id="12" style="edgeStyle=orthogonalEdgeStyle;html=1;exitX=1;exitY=0.5;exitDx=0;exitDy=0;entryX=0.75;entryY=1;entryDx=0;entryDy=0;rounded=0;fontSize=12;" parent="1" source="13" target="24" edge="1">
                    <mxGeometry relative="1" as="geometry">
                        <mxPoint x="400" y="-2075.25" as="targetPoint"/>
                    </mxGeometry>
                </mxCell>
                <mxCell id="13" value="EXT" style="shape=manualInput;whiteSpace=wrap;html=1;size=13;verticalAlign=middle;labelPosition=center;verticalLabelPosition=middle;align=center;spacingBottom=-5;spacingTop=9;fontSize=12;rounded=0;" parent="1" vertex="1">
                    <mxGeometry x="370" y="-2105" width="70" height="40" as="geometry"/>
                </mxCell>
                <mxCell id="14" style="edgeStyle=orthogonalEdgeStyle;rounded=0;html=1;exitX=1;exitY=0.5;exitDx=0;exitDy=0;entryX=0;entryY=0.75;entryDx=0;entryDy=0;startArrow=none;startFill=0;endArrow=classic;endFill=1;" parent="1" source="17" target="13" edge="1">
                    <mxGeometry relative="1" as="geometry"/>
                </mxCell>
                <mxCell id="17" value="ISTR" style="rounded=0;whiteSpace=wrap;html=1;direction=south;fontSize=12;" parent="1" vertex="1">
                    <mxGeometry x="180" y="-2262.5" width="50" height="155" as="geometry"/>
                </mxCell>
                <mxCell id="50" style="edgeStyle=none;html=1;exitX=1;exitY=0.5;exitDx=0;exitDy=0;exitPerimeter=0;entryX=0.036;entryY=0.464;entryDx=0;entryDy=0;entryPerimeter=0;endArrow=none;endFill=0;rounded=0;" edge="1" parent="1" source="19" target="35">
                    <mxGeometry relative="1" as="geometry"/>
                </mxCell>
                <mxCell id="19" value="ALU" style="shape=stencil(rZTdDoIgGIavhtOmMKvTRnXUaRdAislUcEh/dx+CtvzBFbU5t+995eEFPgEI1xmpKIABJyUFaAsg3ByO+q2lm63DILB1NqhJXdFYWfFKJCOnglqnVlLk9MYS1Y5hPKOSqcZFOxBs9DfNg/CJxPlZigtPekZnV6QhjIzOLsW1yX63k7SxHr0KwP0MoGD8DfBaWYv4B2PtwegTXkR/xDLyWEjUQ0Q/h0AeIb44UoS1PuoXozqaDOFUSDrTfSkrCtvKM7M6WnQ6Tuc5qWaYIxbCseBc/3JM8HoSq31NJowr5xYuwtXsOXwGWUMPSDiAOBBmC8YrNbK9rYzwBA==);whiteSpace=wrap;html=1;fontSize=12;rounded=0;" parent="1" vertex="1">
                    <mxGeometry x="560" y="-2170" width="70" height="80" as="geometry"/>
                </mxCell>
                <mxCell id="20" style="edgeStyle=orthogonalEdgeStyle;rounded=0;html=1;entryX=0.5;entryY=0;entryDx=0;entryDy=0;fontSize=12;exitX=0.5;exitY=0;exitDx=0;exitDy=0;" parent="1" source="32" target="11" edge="1">
                    <mxGeometry relative="1" as="geometry">
                        <Array as="points">
                            <mxPoint x="695" y="-2240"/>
                            <mxPoint x="414" y="-2240"/>
                        </Array>
                        <mxPoint x="710" y="-2210" as="sourcePoint"/>
                    </mxGeometry>
                </mxCell>
                <mxCell id="47" style="edgeStyle=orthogonalEdgeStyle;rounded=0;html=1;exitX=0.75;exitY=0;exitDx=0;exitDy=0;entryX=0.75;entryY=1;entryDx=0;entryDy=0;startArrow=none;startFill=0;endArrow=classic;endFill=1;" parent="1" source="22" target="32" edge="1">
                    <mxGeometry relative="1" as="geometry"/>
                </mxCell>
                <mxCell id="22" value="MD" style="whiteSpace=wrap;html=1;aspect=fixed;fontSize=12;rounded=0;" parent="1" vertex="1">
                    <mxGeometry x="690" y="-2157.13" width="54.25" height="54.25" as="geometry"/>
                </mxCell>
                <mxCell id="23" style="edgeStyle=orthogonalEdgeStyle;rounded=0;html=1;exitX=0.5;exitY=0;exitDx=0;exitDy=0;entryX=0;entryY=0.825;entryDx=0;entryDy=0;entryPerimeter=0;" parent="1" source="24" target="19" edge="1">
                    <mxGeometry relative="1" as="geometry"/>
                </mxCell>
                <mxCell id="24" value="" style="shape=trapezoid;perimeter=trapezoidPerimeter;whiteSpace=wrap;html=1;fixedSize=1;direction=south;rounded=0;" parent="1" vertex="1">
                    <mxGeometry x="490" y="-2143.5" width="30" height="78.5" as="geometry"/>
                </mxCell>
                <mxCell id="25" style="edgeStyle=orthogonalEdgeStyle;rounded=0;html=1;exitX=1;exitY=0.5;exitDx=0;exitDy=0;exitPerimeter=0;entryX=0.75;entryY=1;entryDx=0;entryDy=0;" parent="1" source="26" target="42" edge="1">
                    <mxGeometry relative="1" as="geometry">
                        <Array as="points">
                            <mxPoint x="85" y="-2040"/>
                            <mxPoint x="20" y="-2040"/>
                            <mxPoint x="20" y="-2300"/>
                            <mxPoint x="54" y="-2300"/>
                        </Array>
                    </mxGeometry>
                </mxCell>
                <mxCell id="26" value="ALU" style="shape=stencil(rZTdDoIgGIavhtOmMKvTRnXUaRdAislUcEh/dx+CtvzBFbU5t+995eEFPgEI1xmpKIABJyUFaAsg3ByO+q2lm63DILB1NqhJXdFYWfFKJCOnglqnVlLk9MYS1Y5hPKOSqcZFOxBs9DfNg/CJxPlZigtPekZnV6QhjIzOLsW1yX63k7SxHr0KwP0MoGD8DfBaWYv4B2PtwegTXkR/xDLyWEjUQ0Q/h0AeIb44UoS1PuoXozqaDOFUSDrTfSkrCtvKM7M6WnQ6Tuc5qWaYIxbCseBc/3JM8HoSq31NJowr5xYuwtXsOXwGWUMPSDiAOBBmC8YrNbK9rYzwBA==);whiteSpace=wrap;html=1;direction=south;rounded=0;" parent="1" vertex="1">
                    <mxGeometry x="59.94999999999999" y="-2090" width="50" height="40" as="geometry"/>
                </mxCell>
                <mxCell id="27" value="4" style="edgeStyle=none;orthogonalLoop=1;jettySize=auto;html=1;rounded=0;entryX=0;entryY=0.175;entryDx=0;entryDy=0;entryPerimeter=0;" parent="1" target="26" edge="1">
                    <mxGeometry x="-1" y="10" width="80" relative="1" as="geometry">
                        <mxPoint x="100.95000000000005" y="-2120" as="sourcePoint"/>
                        <mxPoint x="199.95" y="-2120" as="targetPoint"/>
                        <Array as="points"/>
                        <mxPoint x="-10" y="-10" as="offset"/>
                    </mxGeometry>
                </mxCell>
                <mxCell id="28" style="edgeStyle=none;html=1;exitX=0.5;exitY=0;exitDx=0;exitDy=0;entryX=0;entryY=0.5;entryDx=0;entryDy=0;rounded=0;" parent="1" source="31" target="11" edge="1">
                    <mxGeometry relative="1" as="geometry"/>
                </mxCell>
                <mxCell id="29" style="edgeStyle=orthogonalEdgeStyle;rounded=0;html=1;exitX=0.25;exitY=1;exitDx=0;exitDy=0;entryX=0.484;entryY=0;entryDx=0;entryDy=0;entryPerimeter=0;startArrow=classic;startFill=1;endArrow=none;endFill=0;" parent="1" source="31" target="17" edge="1">
                    <mxGeometry relative="1" as="geometry">
                        <Array as="points"/>
                    </mxGeometry>
                </mxCell>
                <mxCell id="30" style="edgeStyle=orthogonalEdgeStyle;rounded=0;html=1;exitX=0.75;exitY=1;exitDx=0;exitDy=0;entryX=0.643;entryY=0;entryDx=0;entryDy=0;entryPerimeter=0;startArrow=classic;startFill=1;endArrow=none;endFill=0;" parent="1" source="31" target="17" edge="1">
                    <mxGeometry relative="1" as="geometry"/>
                </mxCell>
                <mxCell id="31" value="" style="shape=trapezoid;perimeter=trapezoidPerimeter;whiteSpace=wrap;html=1;fixedSize=1;direction=south;size=10;rounded=0;" parent="1" vertex="1">
                    <mxGeometry x="290" y="-2200" width="30" height="50" as="geometry"/>
                </mxCell>
                <mxCell id="32" value="" style="shape=trapezoid;perimeter=trapezoidPerimeter;whiteSpace=wrap;html=1;fixedSize=1;size=7.869999999999891;" parent="1" vertex="1">
                    <mxGeometry x="660" y="-2220" width="70" height="30" as="geometry"/>
                </mxCell>
                <mxCell id="33" style="edgeStyle=orthogonalEdgeStyle;rounded=0;html=1;entryX=0;entryY=0.5;entryDx=0;entryDy=0;" parent="1" source="35" target="22" edge="1">
                    <mxGeometry relative="1" as="geometry"/>
                </mxCell>
                <mxCell id="34" style="edgeStyle=orthogonalEdgeStyle;rounded=0;html=1;entryX=0.25;entryY=1;entryDx=0;entryDy=0;endArrow=classic;endFill=1;" parent="1" source="35" target="32" edge="1">
                    <mxGeometry relative="1" as="geometry">
                        <Array as="points">
                            <mxPoint x="650" y="-2170"/>
                            <mxPoint x="678" y="-2170"/>
                            <mxPoint x="678" y="-2190"/>
                        </Array>
                    </mxGeometry>
                </mxCell>
                <mxCell id="43" style="edgeStyle=orthogonalEdgeStyle;rounded=0;html=1;entryX=0.25;entryY=1;entryDx=0;entryDy=0;startArrow=none;startFill=0;endArrow=classic;endFill=1;" parent="1" source="35" target="42" edge="1">
                    <mxGeometry relative="1" as="geometry">
                        <Array as="points">
                            <mxPoint x="650" y="-2020"/>
                            <mxPoint x="10" y="-2020"/>
                            <mxPoint x="10" y="-2310"/>
                            <mxPoint x="91" y="-2310"/>
                        </Array>
                    </mxGeometry>
                </mxCell>
                <mxCell id="35" value="" style="shape=waypoint;sketch=0;fillStyle=solid;size=6;pointerEvents=1;points=[];fillColor=none;resizable=0;rotatable=0;perimeter=centerPerimeter;snapToPoint=1;" parent="1" vertex="1">
                    <mxGeometry x="640" y="-2140" width="20" height="20" as="geometry"/>
                </mxCell>
                <mxCell id="40" value="15" style="edgeStyle=none;html=1;exitX=0.75;exitY=1;exitDx=0;exitDy=0;rounded=0;endArrow=none;endFill=0;startArrow=classic;startFill=1;" parent="1" source="37" edge="1">
                    <mxGeometry x="1" y="-10" relative="1" as="geometry">
                        <mxPoint x="260" y="-2222.3333333333335" as="targetPoint"/>
                        <mxPoint x="-10" y="10" as="offset"/>
                    </mxGeometry>
                </mxCell>
                <mxCell id="41" style="edgeStyle=orthogonalEdgeStyle;rounded=0;html=1;exitX=0.5;exitY=0;exitDx=0;exitDy=0;entryX=0;entryY=0.25;entryDx=0;entryDy=0;startArrow=none;startFill=0;endArrow=classic;endFill=1;" parent="1" source="37" target="11" edge="1">
                    <mxGeometry relative="1" as="geometry"/>
                </mxCell>
                <mxCell id="49" style="edgeStyle=orthogonalEdgeStyle;rounded=0;html=1;exitX=0.25;exitY=1;exitDx=0;exitDy=0;entryX=0.094;entryY=-0.001;entryDx=0;entryDy=0;entryPerimeter=0;startArrow=classic;startFill=1;endArrow=none;endFill=0;" parent="1" source="37" target="17" edge="1">
                    <mxGeometry relative="1" as="geometry"/>
                </mxCell>
                <mxCell id="37" value="" style="shape=trapezoid;perimeter=trapezoidPerimeter;whiteSpace=wrap;html=1;fixedSize=1;direction=south;size=10;rounded=0;" parent="1" vertex="1">
                    <mxGeometry x="290" y="-2260" width="30" height="50" as="geometry"/>
                </mxCell>
                <mxCell id="44" style="edgeStyle=orthogonalEdgeStyle;rounded=0;html=1;exitX=0.5;exitY=0;exitDx=0;exitDy=0;entryX=0;entryY=0.5;entryDx=0;entryDy=0;startArrow=none;startFill=0;endArrow=classic;endFill=1;" parent="1" source="42" target="4" edge="1">
                    <mxGeometry relative="1" as="geometry"/>
                </mxCell>
                <mxCell id="42" value="" style="shape=trapezoid;perimeter=trapezoidPerimeter;whiteSpace=wrap;html=1;fixedSize=1;direction=west;size=10.000000000000043;" parent="1" vertex="1">
                    <mxGeometry x="34.9" y="-2280" width="75.05" height="30" as="geometry"/>
                </mxCell>
            </root>
        </mxGraphModel>
    </diagram>
</mxfile>